<?xml version="1.0" encoding="UTF-8"?>
<!DOCTYPE svg PUBLIC "-//W3C//DTD SVG 1.1//EN" "http://www.w3.org/Graphics/SVG/1.1/DTD/svg11.dtd">
<!-- Creator: CorelDRAW 2017 -->
<svg xmlns="http://www.w3.org/2000/svg" xml:space="preserve" width="354px" height="354px" version="1.1" style="shape-rendering:geometricPrecision; text-rendering:geometricPrecision; image-rendering:optimizeQuality; fill-rule:evenodd; clip-rule:evenodd"
viewBox="0 0 354 354"
 xmlns:xlink="http://www.w3.org/1999/xlink">
 <defs>
  <style type="text/css">
   <![CDATA[
    .fil0 {fill:#AE3361}
   ]]>
  </style>
 </defs>
 <g id="Layer_x0020_1">
  <metadata id="CorelCorpID_0Corel-Layer"/>
  <path class="fil0" d="M177 273c11,0 19,9 19,19 0,11 -9,19 -19,19 -11,0 -19,-9 -19,-19 0,-11 9,-19 19,-19zm-64 -263l127 0c8,0 16,3 21,9 5,5 9,13 9,21l0 274c0,8 -3,16 -9,21 -5,5 -13,9 -21,9l-127 0c-8,0 -16,-3 -21,-9 -5,-5 -9,-13 -9,-21l0 -274c0,-8 3,-16 9,-21 5,-5 13,-9 21,-9zm127 21l-127 0c-2,0 -5,1 -6,3 -2,2 -3,4 -3,6l0 274c0,2 1,5 3,6 2,2 4,3 6,3l127 0c2,0 5,-1 6,-3 2,-2 3,-4 3,-6l0 -274c0,-2 -1,-5 -3,-6 -2,-2 -4,-3 -6,-3zm-85 11l43 0c6,0 10,5 10,10l0 0c0,6 -5,10 -10,10l-43 0c-5,0 -10,-4 -10,-10l0 0c0,-5 5,-10 10,-10z"/>
 </g>
</svg>
