<?xml version="1.0" encoding="UTF-8"?>
<!DOCTYPE svg PUBLIC "-//W3C//DTD SVG 1.1//EN" "http://www.w3.org/Graphics/SVG/1.1/DTD/svg11.dtd">
<!-- Creator: CorelDRAW 2017 -->
<svg xmlns="http://www.w3.org/2000/svg" xml:space="preserve" width="354px" height="354px" version="1.1" style="shape-rendering:geometricPrecision; text-rendering:geometricPrecision; image-rendering:optimizeQuality; fill-rule:evenodd; clip-rule:evenodd"
viewBox="0 0 354 354"
 xmlns:xlink="http://www.w3.org/1999/xlink">
 <defs>
  <style type="text/css">
   <![CDATA[
    .fil0 {fill:#AE3361;fill-rule:nonzero}
   ]]>
  </style>
 </defs>
 <g id="Layer_x0020_1">
  <metadata id="CorelCorpID_0Corel-Layer"/>
  <path class="fil0" d="M323 177l0 127c0,8 -3,16 -9,21 -5,5 -13,9 -21,9l-231 0c-8,0 -16,-3 -21,-9 -5,-5 -9,-13 -9,-21l0 -127 -21 0 0 -60c0,-7 3,-13 7,-17 4,-4 11,-7 17,-7l31 0c-1,-1 -2,-3 -3,-4 -9,-11 -13,-23 -11,-34 1,-8 4,-15 9,-20 5,-6 11,-10 19,-12 13,-4 29,-3 46,5l0 0 1 0c25,15 38,36 52,57 14,-21 27,-41 52,-57l1 0 0 0c17,-8 33,-9 46,-5 8,2 14,7 19,12 5,6 8,13 9,20 1,11 -2,23 -11,34 -1,1 -2,3 -3,4l30 0c7,0 13,3 17,7 4,4 7,11 7,17l0 60 -21 0zm-218 -85l54 0c-11,-18 -23,-35 -42,-47 -12,-6 -23,-6 -30,-4 -4,1 -7,3 -9,6 -2,3 -3,6 -4,9 -1,6 2,12 7,19l0 0c6,9 13,11 20,14 2,1 3,1 5,2zm92 0l54 0c2,-1 3,-1 5,-2 7,-3 14,-6 20,-14l0 0c5,-7 8,-13 7,-19 0,-3 -2,-6 -4,-9 -2,-3 -5,-5 -9,-6 -8,-2 -18,-2 -30,4 -19,12 -31,29 -42,47zm-30 221l0 -136 -115 0 0 127c0,3 1,5 3,7 2,2 4,3 7,3l106 0zm0 -157l0 -44 -132 0c-1,0 -2,0 -3,1 -1,1 -1,2 -1,3l0 40 136 0zm21 -44l0 44 134 0 1 0 0 -40c0,-1 0,-2 -1,-3 -1,-1 -2,-1 -3,-1l-131 0zm0 64l0 136 104 0c3,0 5,-1 7,-3 2,-2 3,-4 3,-7l0 -127 -114 0z"/>
 </g>
</svg>
