<?xml version="1.0" encoding="UTF-8"?>
<!DOCTYPE svg PUBLIC "-//W3C//DTD SVG 1.1//EN" "http://www.w3.org/Graphics/SVG/1.1/DTD/svg11.dtd">
<!-- Creator: CorelDRAW 2017 -->
<svg xmlns="http://www.w3.org/2000/svg" xml:space="preserve" width="354px" height="354px" version="1.1" style="shape-rendering:geometricPrecision; text-rendering:geometricPrecision; image-rendering:optimizeQuality; fill-rule:evenodd; clip-rule:evenodd"
viewBox="0 0 354 354"
 xmlns:xlink="http://www.w3.org/1999/xlink">
 <defs>
  <style type="text/css">
   <![CDATA[
    .fil0 {fill:#AE3361;fill-rule:nonzero}
   ]]>
  </style>
 </defs>
 <g id="Layer_x0020_1">
  <metadata id="CorelCorpID_0Corel-Layer"/>
  <path class="fil0" d="M177 115c20,0 38,8 51,21 13,13 21,31 21,51 0,20 -8,38 -21,51 -13,13 -31,21 -51,21 -20,0 -38,-8 -51,-21 -13,-13 -21,-31 -21,-51 0,-20 8,-38 21,-51 13,-13 31,-21 51,-21zm-135 -32l48 0 26 -42 123 0 26 42 48 0c9,0 17,4 22,9 6,6 9,14 9,22l0 167c0,9 -4,17 -9,22 -6,6 -14,9 -22,9l-270 0c-9,0 -17,-4 -22,-9 -6,-6 -9,-14 -9,-22l0 -167c0,-9 4,-17 9,-22 6,-6 14,-9 22,-9zm53 21l-53 0c-3,0 -6,1 -8,3 -2,2 -3,5 -3,8l0 167c0,3 1,6 3,8 2,2 5,3 8,3l270 0c3,0 6,-1 8,-3 2,-2 3,-5 3,-8l0 -167c0,-3 -1,-6 -3,-8 -2,-2 -5,-3 -8,-3l-59 0 -26 -42 -100 0 -26 42 -6 0zm118 47c-9,-9 -22,-15 -36,-15 -14,0 -27,6 -36,15 -9,9 -15,22 -15,36 0,14 6,27 15,36 9,9 22,15 36,15 14,0 27,-6 36,-15 9,-9 15,-22 15,-36 0,-14 -6,-27 -15,-36z"/>
 </g>
</svg>
