<?xml version="1.0" encoding="UTF-8"?>
<!DOCTYPE svg PUBLIC "-//W3C//DTD SVG 1.1//EN" "http://www.w3.org/Graphics/SVG/1.1/DTD/svg11.dtd">
<!-- Creator: CorelDRAW 2017 -->
<svg xmlns="http://www.w3.org/2000/svg" xml:space="preserve" width="354px" height="354px" version="1.1" style="shape-rendering:geometricPrecision; text-rendering:geometricPrecision; image-rendering:optimizeQuality; fill-rule:evenodd; clip-rule:evenodd"
viewBox="0 0 354 354"
 xmlns:xlink="http://www.w3.org/1999/xlink">
 <defs>
  <style type="text/css">
   <![CDATA[
    .fil0 {fill:#AE3361}
   ]]>
  </style>
 </defs>
 <g id="Layer_x0020_1">
  <metadata id="CorelCorpID_0Corel-Layer"/>
  <path class="fil0" d="M187 238l0 35c0,5 -4,10 -10,10l0 0c-5,0 -10,-4 -10,-10l0 -36c-6,-4 -10,-10 -10,-17 0,-11 9,-20 20,-20 11,0 20,9 20,20 0,8 -5,15 -11,18zm-106 -103l20 0 -5 -22 0 0c-1,-3 -2,-7 -2,-11 -1,-4 -1,-7 -1,-11 0,-23 9,-44 24,-59 15,-15 36,-24 59,-24 19,0 36,6 51,17 14,11 25,26 30,44l0 1 6 22c1,6 -2,11 -7,13 -6,1 -11,-2 -13,-7l-6 -22 0 -1c-4,-14 -12,-25 -22,-33 -11,-8 -24,-13 -38,-13 -17,0 -33,7 -44,18 -11,11 -18,27 -18,44 0,3 0,6 1,8 0,3 1,5 2,8l0 0 6 27 151 0c11,0 21,4 28,12l0 0c7,7 12,17 12,28l0 131c0,11 -4,21 -12,28l0 0c-7,7 -17,12 -28,12l-192 0c-11,0 -21,-4 -28,-12l0 0c-7,-7 -12,-17 -12,-28l0 -131c0,-11 4,-21 12,-28 7,-7 17,-12 28,-12zm192 21l-192 0c-5,0 -10,2 -13,6 -3,3 -6,8 -6,13l0 131c0,5 2,10 6,13l0 0c3,3 8,5 13,5l192 0c5,0 10,-2 13,-5l0 0c3,-3 5,-8 5,-13l0 -131c0,-5 -2,-10 -5,-13l0 0c-3,-3 -8,-6 -13,-6z"/>
 </g>
</svg>
